<?xml version="1.0" encoding="UTF-8"?>
<svg width="22px" height="17px" viewBox="0 0 22 17" version="1.1" xmlns="http://www.w3.org/2000/svg" xmlns:xlink="http://www.w3.org/1999/xlink">
    <!-- Generator: Sketch 45.2 (43514) - http://www.bohemiancoding.com/sketch -->
    <title>check</title>
    <desc>Created with Sketch.</desc>
    <defs></defs>
    <g id="Search-Results" stroke="none" stroke-width="1" fill="none" fill-rule="evenodd">
        <g id="Home---Interim---Validation---Good" transform="translate(-341.000000, -442.000000)" fill="#FFFFFF">
            <g id="Validation" transform="translate(330.000000, 428.000000)">
                <g id="check" transform="translate(10.000000, 14.000000)">
                    <path d="M1.28097696,6.36467952 C0.944049977,6.71507288 0.944049977,7.28626207 1.2833006,7.63425548 L3.45357511,9.878213 C3.79282573,10.2286064 4.34585071,10.2286064 4.68277769,9.878213 L8.21005468,6.24468179 C8.5493053,5.89428842 9.10233029,5.89668837 9.43925727,6.24468179 L19.1055763,16.2524923 C19.4425033,16.6004857 19.9955283,16.6028857 20.3347789,16.2548923 L22.4957589,14.0397342 C22.8350095,13.6917408 22.8350095,13.1205516 22.4980825,12.7701583 L10.7776707,0.635987961 C10.4407437,0.287994548 9.77386062,8.8817842e-14 9.29519194,8.8817842e-14 L8.28208735,8.8817842e-14 C7.8057423,8.8817842e-14 7.13885923,0.287994548 6.79960861,0.635987961 L1.28097696,6.36467952 Z" transform="translate(11.889530, 8.257345) scale(1, -1) translate(-11.889530, -8.257345) "></path>
                </g>
            </g>
        </g>
    </g>
</svg>