<?xml version="1.0" encoding="utf-8"?>
<!-- Generator: Adobe Illustrator 18.1.0, SVG Export Plug-In . SVG Version: 6.00 Build 0)  -->
<svg version="1.1" id="Layer_1" xmlns="http://www.w3.org/2000/svg" xmlns:xlink="http://www.w3.org/1999/xlink" x="0px" y="0px"
	 viewBox="0 0 54 54" enable-background="new 0 0 54 54" xml:space="preserve">
<g>
	<path fill="#EF8F1C" d="M27,54C12.1,54,0,41.9,0,27S12.1,0,27,0s27,12.1,27,27S41.9,54,27,54z M27,1.9C13.2,1.9,1.9,13.2,1.9,27
		S13.1,52.1,27,52.1c13.8,0,25.1-11.2,25.1-25.1C52.1,13.2,40.8,1.9,27,1.9z"/>
	<g>
		<g>
			<path fill="#EF8F1C" d="M35,29.3c-1.4,0-2.6,0.7-3.3,1.8L23,27.6c0-0.2,0.1-0.4,0.1-0.6c0-0.1,0-0.2,0-0.3l8.6-3.8
				c0.7,1.1,1.9,1.8,3.3,1.8c2.2,0,4-1.7,4-3.9c0-2.2-1.8-3.9-4-3.9c-2.2,0-4,1.7-4,3.9c0,0.2,0,0.5,0.1,0.7l-8.5,3.7
				c-0.7-1.2-2-2-3.5-2c-2.2,0-4,1.7-4,3.9c0,2.2,1.8,3.9,4,3.9c1.4,0,2.6-0.7,3.3-1.8l8.6,3.5c0,0.2-0.1,0.4-0.1,0.6
				c0,2.2,1.8,3.9,4,3.9c2.2,0,4-1.7,4-3.9C38.9,31.1,37.1,29.3,35,29.3z M35,18.4c1.3,0,2.4,1,2.4,2.3s-1.1,2.3-2.4,2.3
				s-2.4-1-2.4-2.3C32.6,19.5,33.6,18.4,35,18.4z M19,29.3c-1.3,0-2.4-1-2.4-2.3s1.1-2.3,2.4-2.3s2.4,1,2.4,2.3
				C21.4,28.3,20.4,29.3,19,29.3z M35,35.6c-1.3,0-2.4-1-2.4-2.3c0-1.3,1.1-2.3,2.4-2.3s2.4,1,2.4,2.3C37.3,34.5,36.3,35.6,35,35.6z
				"/>
		</g>
	</g>
</g>
</svg>
