<?xml version="1.0" encoding="utf-8"?>
<!-- Generator: Adobe Illustrator 18.1.0, SVG Export Plug-In . SVG Version: 6.00 Build 0)  -->
<svg version="1.1" id="Layer_1" xmlns="http://www.w3.org/2000/svg" xmlns:xlink="http://www.w3.org/1999/xlink" x="0px" y="0px"
	 viewBox="0 0 54 54" enable-background="new 0 0 54 54" xml:space="preserve">
<path fill="#EF8F1C" d="M27,54C12.1,54,0,41.9,0,27S12.1,0,27,0s27,12.1,27,27S41.9,54,27,54z M27,1.9C13.2,1.9,1.9,13.2,1.9,27
	c0,13.8,11.2,25.1,25.1,25.1c13.8,0,25.1-11.2,25.1-25.1C52.1,13.2,40.8,1.9,27,1.9z"/>
<g>
	<g>
		<path fill-rule="evenodd" clip-rule="evenodd" fill="#EF8F1C" d="M27.7,25.2c0-0.2-0.2-0.4-0.4-0.4c-0.2,0-0.4,0.2-0.4,0.4V34
			l-3.6-3.8c-0.2-0.2-0.4-0.2-0.6,0c-0.2,0.2-0.2,0.4,0,0.6l4.3,4.5c0,0,0,0.1,0.1,0.1c0.1,0.1,0.2,0.1,0.3,0.1c0,0,0,0,0,0
			c0,0,0,0,0,0c0.1,0,0.2,0,0.3-0.1c0,0,0-0.1,0.1-0.1l4.3-4.5c0.2-0.2,0.2-0.4,0-0.6c-0.2-0.2-0.4-0.2-0.6,0L27.7,34V25.2z
			 M37.1,20.8L37.1,20.8l-6.2-6.1v0h0l0,0l0,0H17.6c-0.4,0-0.8,0.3-0.8,0.8v22.9c0,0.4,0.3,0.8,0.8,0.8h18.7c0.4,0,0.8-0.3,0.8-0.8
			L37.1,20.8L37.1,20.8z M30.9,17.1l3.8,3.7h-3.8V17.1z M35.5,36.9c0,0.4-0.3,0.8-0.8,0.8H19.2c-0.4,0-0.8-0.3-0.8-0.8V17
			c0-0.4,0.3-0.8,0.8-0.8h10.1v6.1h6.2V36.9z"/>
	</g>
</g>
</svg>
