<?xml version="1.0" encoding="utf-8"?>
<!-- Generator: Adobe Illustrator 18.1.0, SVG Export Plug-In . SVG Version: 6.00 Build 0)  -->
<svg version="1.1" id="Layer_1" xmlns="http://www.w3.org/2000/svg" xmlns:xlink="http://www.w3.org/1999/xlink" x="0px" y="0px"
	 viewBox="0 0 54 54" enable-background="new 0 0 54 54" xml:space="preserve">
<path fill="#EF8F1C" d="M27,54C12.1,54,0,41.9,0,27S12.1,0,27,0s27,12.1,27,27S41.9,54,27,54z M27,1.9C13.2,1.9,1.9,13.2,1.9,27
	c0,13.8,11.2,25.1,25.1,25.1c13.8,0,25.1-11.2,25.1-25.1C52.1,13.2,40.8,1.9,27,1.9z"/>
<g>
	<g>
		<path fill-rule="evenodd" clip-rule="evenodd" fill="#EF8F1C" d="M27.3,19.4c-2.1,0-3.8,1.7-3.8,3.8c0,2.1,1.7,3.8,3.8,3.8
			c2.1,0,3.8-1.7,3.8-3.8C31.1,21.1,29.4,19.4,27.3,19.4z M27.3,25.5c-1.3,0-2.3-1-2.3-2.3c0-1.3,1-2.3,2.3-2.3c1.3,0,2.3,1,2.3,2.3
			C29.6,24.5,28.6,25.5,27.3,25.5z M27.3,14.8c-5,0-9.1,4.1-9.1,9.1c0,5,9.1,15.2,9.1,15.2S36.5,29,36.5,24
			C36.5,18.9,32.4,14.8,27.3,14.8z M19.8,24.1c0-4.2,3.4-7.7,7.6-7.7s7.6,3.4,7.6,7.7c0,4.2-7.6,12.8-7.6,12.8S19.8,28.3,19.8,24.1z
			 M17.5,37.6l2.3-7.6h-1.5l-3,9.1h9.1l-1.5-1.5H17.5z M36.5,30h-1.5l2.3,7.6h-5.3l-1.5,1.5h9.1L36.5,30z"/>
	</g>
</g>
</svg>
