<?xml version="1.0" encoding="UTF-8" standalone="no"?>
<svg width="14px" height="18px" viewBox="0 0 14 18" version="1.1" xmlns="http://www.w3.org/2000/svg" xmlns:xlink="http://www.w3.org/1999/xlink">
    <!-- Generator: Sketch 39.1 (31720) - http://www.bohemiancoding.com/sketch -->
    <title>lock</title>
    <desc>Created with Sketch.</desc>
    <defs></defs>
    <g id="Search-Results" stroke="none" stroke-width="1" fill="none" fill-rule="evenodd" opacity="0.1">
        <g id="My-Account-–-D-–-Default" transform="translate(-771.000000, -526.000000)" fill="#000000">
            <g id="Content" transform="translate(140.000000, 98.000000)">
                <g id="Public" transform="translate(0.000000, 219.000000)">
                    <g id="Personal-Info">
                        <g id="Company" transform="translate(340.000000, 163.000000)">
                            <g id="lock" transform="translate(291.000000, 46.000000)">
                                <g id="Lock-01">
                                    <path d="M13.3053396,8.61099128 L12.3804136,8.61099128 L12.3803293,5.57604715 C12.3803293,4.063769 11.7972902,2.67684678 10.8341578,1.66324312 C9.87462858,0.649519604 8.50772263,-0.00126815527 7.00028742,1.85546386e-06 C5.49239591,-0.00126815527 4.12537174,0.649519604 3.1659428,1.66324312 C2.20260657,2.67684678 1.61970843,4.063769 1.61944482,5.57604715 L1.61944482,8.61099128 L0.694614729,8.61099128 C0.310968159,8.61099128 0,8.91700722 0,9.29477915 L0,17.3161303 C0,17.693762 0.310968159,18 0.694614729,18 L13.3053389,18 C13.689075,18 14,17.693762 14,17.3161303 L14,9.29477915 C14.0000006,8.91700721 13.6890756,8.61099128 13.3053396,8.61099128 L13.3053396,8.61099128 Z M4.17443284,5.57604714 C4.17443284,4.70326289 4.51000312,3.93110603 5.03168976,3.38161386 C5.55738914,2.83253853 6.24194388,2.51643676 7.00028743,2.51541056 C7.75813569,2.51643677 8.44261118,2.8322793 8.96822684,3.38161386 C9.48987258,3.93110603 9.82542625,4.70326289 9.82542625,5.57604714 L9.82542625,8.61099128 L4.17443284,8.61099128 L4.17443284,5.57604714 L4.17443284,5.57604714 Z" id="Shape"></path>
                                </g>
                            </g>
                        </g>
                    </g>
                </g>
            </g>
        </g>
    </g>
</svg>