<svg xmlns="http://www.w3.org/2000/svg" width="126" height="126" viewBox="0 0 126 126">
    <g fill="none" fill-rule="evenodd">
        <path fill="#FFF" d="M-578-92H702v306H-578z"/>
        <g>
            <circle cx="63" cy="63" r="63" fill="#D4FCFF"/>
            <path fill="#00C0D1" fill-rule="nonzero" d="M95.217 90H30.783C27.037 90 24 86.95 24 83.19V47.431c0-3.76 3.037-6.81 6.783-6.81h25.434V33.81C56.217 30.05 59.254 27 63 27c3.746 0 6.783 3.05 6.783 6.81v6.812h25.434c3.746 0 6.783 3.05 6.783 6.81V83.19C102 86.95 98.963 90 95.217 90zM51.154 77.21v.006c-.007 0-.03-1.33-.03-1.33s1.977-1.023 3.444-2.346c.86-.71 1.256-2.32 1.256-2.32.232-1.409.404-4.898.404-6.304 0-3.511-1.752-7.288-6.795-7.288v-.013.012c-5.043 0-6.794 3.778-6.794 7.287 0 1.407.173 4.895.403 6.305 0 0 .397 1.61 1.257 2.32 1.466 1.322 3.444 2.346 3.444 2.346s-.024 1.33-.031 1.33v-.007s.05 1.95.05 2.532c0 2.319-2.315 3.436-3.77 3.436h-.005c-4.397.192-5.435 1.661-5.443 1.675-.268.433-.641.862-.982 1.744h23.746c-.341-.882-.714-1.311-.987-1.74-.009-.016-1.046-1.484-5.443-1.676h-.005c-1.453 0-3.77-1.115-3.77-3.436 0-.582.051-2.534.051-2.534zm15.237-43.4A3.4 3.4 0 0 0 63 30.406a3.4 3.4 0 0 0-3.391 3.406v10.216A3.4 3.4 0 0 0 63 47.432a3.4 3.4 0 0 0 3.391-3.405V33.811zM98.61 47.433a3.4 3.4 0 0 0-3.392-3.405H69.783c0 3.761-3.037 6.81-6.783 6.81-3.746 0-6.783-3.049-6.783-6.81H30.783a3.4 3.4 0 0 0-3.392 3.405V83.19a3.4 3.4 0 0 0 3.392 3.406h3.047c.391-1.003 1.112-2.638 1.967-3.814.042-.024 1.438-2.961 8.475-3.048.01-.036.016-1.775.037-1.749a12.361 12.361 0 0 1-1.782-1.39c-.433-.265-1.969-1.751-2.462-4.397-.148-.923-.828-5.277-.828-7.094 0-5.4 2.145-10.865 10.094-10.865h.206c7.949 0 10.094 5.466 10.094 10.865 0 1.817-.68 6.17-.828 7.094-.493 2.646-2.03 4.132-2.462 4.398a12.063 12.063 0 0 1-1.782 1.389c.022-.026.029 1.715.037 1.749 7.039.087 8.435 3.024 8.475 3.048.855 1.176 1.575 2.81 1.967 3.814h30.18a3.4 3.4 0 0 0 3.39-3.406V47.432zM90.13 62.757H69.783a1.698 1.698 0 0 1-1.696-1.703c0-.942.758-1.703 1.696-1.703H90.13c.938 0 1.696.761 1.696 1.703 0 .942-.758 1.703-1.696 1.703zm-20.347 6.81h3.39c.939 0 1.697.762 1.697 1.703 0 .942-.758 1.703-1.696 1.703h-3.391a1.698 1.698 0 0 1-1.696-1.703c0-.941.758-1.702 1.696-1.702zm0 6.811h10.174c.937 0 1.695.761 1.695 1.703 0 .942-.758 1.703-1.695 1.703H69.783a1.698 1.698 0 0 1-1.696-1.703c0-.942.758-1.703 1.696-1.703zm6.782-5.108c0-.941.758-1.702 1.696-1.702h6.782c.938 0 1.696.76 1.696 1.702s-.758 1.703-1.696 1.703h-6.782a1.698 1.698 0 0 1-1.696-1.703zm-15.26-37.46h3.39v3.406h-3.39v-3.405z"/>
        </g>
    </g>
</svg>
