<svg xmlns="http://www.w3.org/2000/svg" width="126" height="126" viewBox="0 0 126 126">
    <g fill="none" fill-rule="evenodd">
        <path fill="#FFF" d="M-806-92H474v306H-806z"/>
        <g>
            <circle cx="63" cy="63" r="63" fill="#D4FCFF"/>
            <g fill="#00C0D1" fill-rule="nonzero" transform="translate(21 21)">
                <ellipse cx="21.951" cy="15.879" rx="6.165" ry="6.445"/>
                <path d="M25.22 22.511l-3.176 2.429-3.176-2.429c-.934.187-8.406 2.055-9.06 7.846-.094.56.187 1.121.654 1.495 1.4.934 4.857 2.802 11.582 2.802 6.725 0 10.181-1.868 11.582-2.802.467-.374.748-.934.654-1.495-.747-5.791-8.22-7.66-9.06-7.846z"/>
                <ellipse cx="65.011" cy="40.538" rx="4.577" ry="4.857"/>
                <path d="M67.44 45.582l-2.336 1.869-2.335-1.869c-.654.187-6.258 1.588-6.818 5.885-.094.467.093.84.467 1.12 1.027.748 3.642 2.056 8.686 2.056 5.044 0 7.66-1.401 8.687-2.055.374-.28.56-.654.467-1.121-.56-4.39-6.165-5.791-6.818-5.885z"/>
                <ellipse cx="26.527" cy="61.462" rx="4.577" ry="4.857"/>
                <path d="M28.956 66.412l-2.335 1.868-2.335-1.868c-.654.187-6.259 1.588-6.819 5.885-.093.467.093.84.467 1.12 1.028.748 3.643 2.056 8.687 2.056s7.66-1.402 8.687-2.055c.373-.28.56-.654.467-1.121-.56-4.297-6.165-5.698-6.819-5.885z"/>
                <path d="M83.88 72.016c-.842-3.082-3.924-4.95-7.006-4.296l-3.083-7.753c4.857-2.989 8.033-8.313 8.033-14.291 0-9.247-7.566-16.813-16.813-16.813-5.885 0-11.115 3.082-14.104 7.659l-8.967-4.857c1.4-2.896 2.241-6.165 2.241-9.621 0-2.335-.373-4.67-1.12-6.819l9.434-2.522c1.214 1.868 3.549 2.99 5.978 2.616 3.269-.467 5.51-3.55 5.043-6.819-.467-3.27-3.549-5.511-6.818-5.044-3.27.467-5.418 3.55-5.044 6.725l-9.621 2.616A21.944 21.944 0 0 0 22.044 0C9.901 0 0 9.901 0 22.044s9.901 22.044 22.044 22.044h.56l.748 6.725c-7.66 1.495-13.544 8.313-13.544 16.44 0 9.247 7.566 16.813 16.813 16.813S43.434 76.5 43.434 67.253c0-2.522-.56-4.95-1.588-7.1L51 55.017c2.989 4.484 8.126 7.473 13.918 7.473 2.241 0 4.39-.467 6.445-1.308l2.989 7.66c-1.868 1.4-2.803 3.923-2.149 6.351.841 3.176 4.204 5.044 7.38 4.204 3.269-.841 5.137-4.204 4.296-7.38zM3.175 22.044c0-10.462 8.5-18.868 18.868-18.868 10.368 0 18.868 8.5 18.868 18.868 0 10.368-8.5 18.868-18.868 18.868-10.368 0-18.868-8.407-18.868-18.868zM26.62 80.89c-7.566 0-13.637-6.165-13.637-13.637 0-7.473 6.164-13.638 13.637-13.638 7.472 0 13.637 6.165 13.637 13.638 0 7.472-6.165 13.637-13.637 13.637zm13.917-22.978c-2.989-4.483-8.126-7.472-13.917-7.472h-.654L25.22 43.9c6.445-.934 11.956-4.67 15.412-9.901l9.06 4.857a16.548 16.548 0 0 0-1.494 6.819c0 2.522.56 4.95 1.588 7.099l-9.248 5.137zm10.836-12.236c0-7.566 6.164-13.638 13.637-13.638 7.473 0 13.637 6.165 13.637 13.638 0 7.472-6.164 13.637-13.637 13.637-7.473 0-13.637-6.071-13.637-13.637z"/>
            </g>
        </g>
    </g>
</svg>
