<svg xmlns="http://www.w3.org/2000/svg" width="126" height="126" viewBox="0 0 126 126">
    <g fill="none" fill-rule="evenodd">
        <path fill="#FFF" d="M-350-92H930v306H-350z"/>
        <g>
            <circle cx="63" cy="63" r="63" fill="#D4FCFF"/>
            <g fill="#00C0D1" fill-rule="nonzero">
                <path d="M91.894 36.113a1.597 1.597 0 0 0-1.181-.869l-13-1.596a1.597 1.597 0 0 0-1.57 2.301l2.457 4.889-50.424 22.696a1.597 1.597 0 1 0 1.334 2.9l50.592-22.756 2.865 5.501c.23.464.67.788 1.18.87.75.008 1.287-.329 1.554-.856l6.166-11.554a1.597 1.597 0 0 0 .027-1.526zM99.2 51a2 2 0 1 0-4 0v43.7h-7.4V58.6a2 2 0 1 0-4 0v36.1h-7.3V62.4a2 2 0 1 0-4 0v32.3h-7.4V69a2 2 0 1 0-4 0v25.7h-7.4v-20a2 2 0 1 0-4 0v20h-7.4V78.5a2 2 0 1 0-4 0v16.2H31V83.2a2 2 0 1 0-4 0v13.5a2 2 0 0 0 2 2h68.2a2 2 0 0 0 2-2V51z"/>
            </g>
        </g>
    </g>
</svg>
