<?xml version="1.0" encoding="UTF-8"?>
<svg width="101px" height="109px" viewBox="0 0 101 109" version="1.1" xmlns="http://www.w3.org/2000/svg" xmlns:xlink="http://www.w3.org/1999/xlink">
    <!-- Generator: Sketch 46.2 (44496) - http://www.bohemiancoding.com/sketch -->
    <title>no-applicants</title>
    <desc>Created with Sketch.</desc>
    <defs></defs>
    <g id="Search-Results" stroke="none" stroke-width="1" fill="none" fill-rule="evenodd">
        <g id="Manage-Jobs---Applicants---Empty" transform="translate(-277.000000, -655.000000)" fill="#EEEEEE">
            <g id="no-applicants" transform="translate(267.000000, 644.000000)">
                <g id="Layer_1">
                    <g>
                        <g id="Group">
                            <g transform="translate(10.000000, 11.000000)" id="Shape">
                                <polygon points="70.0016937 99.9985046 9.7042942 99.9985046 9.7042942 32.6020508 32.320507 32.6020508 32.320507 9.9637947 70.0016937 9.9637947 70.0016937 19.4002113 78.3440323 11.0593605 79.0031815 10.4002209 79.0031815 0.9638023 23.3191566 0.9638023 23.3191566 1.0326405 0.7028027 23.6006813 0.7028027 109 79.0031815 109 79.0031815 68.6503143 70.0016937 77.6501312"></polygon>
                                <path d="M40.8561668,61.1925125 L40.8548164,61.1983566 L40.8533172,61.2027054 L40.8548164,61.2027054 L32.9971847,85.3833084 L57.1791306,77.52565 L57.1806336,77.52565 L57.1864777,77.5228271 L57.1864777,77.5198211 L101,33.7078171 L84.6740265,17.3834992 L40.8635139,61.1925125 L40.8561668,61.1925125 L40.8561668,61.1925125 Z M55.1654205,74.2421265 L38.8379554,79.5425339 L44.1427154,63.2165451 L55.1654205,74.2421265 L55.1654205,74.2421265 Z"></path>
                            </g>
                        </g>
                    </g>
                </g>
            </g>
        </g>
    </g>
</svg>