<?xml version="1.0" encoding="UTF-8"?>
<svg width="134px" height="75px" viewBox="0 0 134 75" version="1.1" xmlns="http://www.w3.org/2000/svg" xmlns:xlink="http://www.w3.org/1999/xlink">
    <!-- Generator: Sketch 46.2 (44496) - http://www.bohemiancoding.com/sketch -->
    <title>no-views</title>
    <desc>Created with Sketch.</desc>
    <defs></defs>
    <g id="Search-Results" stroke="none" stroke-width="1" fill="none" fill-rule="evenodd">
        <g id="Manage-Jobs---Viewed---Empty" transform="translate(-250.000000, -601.000000)" fill="#EEEEEE">
            <g id="Table" transform="translate(140.000000, 322.000000)">
                <g id="Suggested-Empty-State" transform="translate(0.000000, 116.000000)">
                    <g id="no-views" transform="translate(110.000000, 138.000000)">
                        <g id="Layer_1">
                            <g>
                                <g id="Group">
                                    <g transform="translate(0.000000, 25.000000)">
                                        <path d="M67.449646,0.2983513 C31.3992081,0.2983513 0.7829666,36.3796387 0.7829666,36.3796387 L0.7829666,37.7408829 C0.7829666,37.7408829 31.2830467,74.0489121 67.3334808,74.0489121 C103.380196,74.048912 134,37.9676285 134,37.9676285 L134,36.6063843 C134,36.6063843 103.496361,0.2983513 67.449646,0.2983513 L67.449646,0.2983513 Z M67.2189941,59.7409973 C55.0202217,59.7409973 45.1335563,49.8526687 45.1335563,37.6555633 C45.1335563,25.4584732 55.0202216,15.570137 67.2189941,15.570137 C79.4179458,15.570137 89.306282,25.4584732 89.306282,37.6555633 C89.306282,49.8526688 79.4179459,59.7409973 67.2189941,59.7409973 L67.2189941,59.7409973 Z" id="Shape"></path>
                                        <circle id="Oval" cx="67.2190399" cy="37.5216599" r="10.1111374"></circle>
                                    </g>
                                </g>
                            </g>
                        </g>
                    </g>
                </g>
            </g>
        </g>
    </g>
</svg>