<svg xmlns="http://www.w3.org/2000/svg" xmlns:xlink="http://www.w3.org/1999/xlink" width="26" height="22" viewBox="0 0 26 22">
    <defs>
        <path id="a" d="M0 0h25.646v21.972H0V0z"/>
    </defs>
    <g fill="none" fill-rule="evenodd" transform="translate(-669 -19)">
        <rect width="1000" height="56" fill="#e3e3e3" rx="2"/>
        <g opacity=".246" transform="translate(669 19)">
            <mask id="b" fill="#fff">
                <use xlink:href="#a"/>
            </mask>
            <path fill="#231F20" d="M22.435 16.46c-1.55-.675-3.848-2.414-7.25-3.011.87-.913 1.528-2.342 2.206-4.034.392-.98.325-1.816.325-3.006 0-.88.17-2.29-.053-3.066C16.912.723 15.015 0 12.793 0 10.57 0 8.67.726 7.921 3.35c-.22.773-.051 2.181-.051 3.058 0 1.193-.066 2.031.327 3.014.683 1.7 1.332 3.126 2.2 4.036-3.377.608-5.658 2.334-7.197 3.007C.016 17.858 0 19.383 0 19.383v2.589l25.646-.003v-2.586s-.015-1.53-3.211-2.923" mask="url(#b)"/>
        </g>
    </g>
</svg>
