<svg xmlns="http://www.w3.org/2000/svg" xmlns:xlink="http://www.w3.org/1999/xlink" width="9" height="24" viewBox="0 0 9 24">
    <defs>
        <path id="a" d="M.003 24V.01h8.96V24z"/>
    </defs>
    <g fill="none" fill-rule="evenodd">
        <path fill="#FFF" d="M-385-105H895V99H-385z"/>
        <text font-family="HelveticaNeue-Light, Helvetica Neue" font-size="16" font-weight="300" transform="translate(-385 -105)">
            <tspan x="225" y="112" fill="#444">Front End Developer, Google</tspan> <tspan x="425.08" y="112" fill="#999"> | 2013–Present</tspan> <tspan x="225" y="136" fill="#444">Software Developer, Yahoo</tspan> <tspan x="413.528" y="136" fill="#999"> | 2010–2013</tspan> <tspan x="225" y="160" fill="#444">Jr. Software Developer, AOL</tspan> <tspan x="421.528" y="160" fill="#999"> | 2008–2010</tspan>
        </text>
        <g>
            <path fill="#000" d="M-386-205H896v2278H-386z" opacity=".3"/>
            <path fill="#F8F6F0" d="M-75 317h660V-50H-75z"/>
            <g>
                <mask id="b" fill="#fff">
                    <use xlink:href="#a"/>
                </mask>
                <path fill="#3FB2BB" d="M4.225 14.127a22.878 22.878 0 0 1 0-4.84c.135-1.205.37-2.381 1.403-2.381L5.62.009C4.437.135.128 2.011.003 11.68-.13 21.867 4.437 24.01 5.634 23.986v-6.728c-.986 0-1.184-1.022-1.41-3.13M8.176 17.253H6.174v6.745s1.997.003 1.998.002l.004-.002a.765.765 0 0 0 .784-.751l.003-.003-.003-5.247c0-.416-.354-.744-.784-.744" mask="url(#b)"/>
            </g>
            <path fill="#3FB2BB" d="M8.183 6.857l.004-.002c.471 0 .81-.352.81-.747L9 6.105 8.997.74C8.997.326 8.63 0 8.187 0H6.12v6.855s2.062.003 2.063.002"/>
        </g>
    </g>
</svg>
