<?xml version="1.0" encoding="utf-8"?>
<!-- Generator: Adobe Illustrator 19.2.1, SVG Export Plug-In . SVG Version: 6.00 Build 0)  -->
<svg version="1.1" id="Layer_1" xmlns="http://www.w3.org/2000/svg" xmlns:xlink="http://www.w3.org/1999/xlink" x="0px" y="0px"
	 viewBox="0 0 32 32" style="enable-background:new 0 0 32 32;" xml:space="preserve">
<style type="text/css">
	.st0{fill:#3FB2BB;}
</style>
<g id="interface_-_circle_right_true">
	<g>
		<path class="st0" d="M16,0C7.1999998,0,0,7.1999998,0,16s7.1999998,16,16,16s16-7.2000008,16-16S24.7999992,0,16,0z M16,31
			C7.6999998,31,1,24.2999992,1,16S7.6999998,1,16,1s15,6.6999998,15,15S24.2999992,31,16,31z"/>
	</g>
</g>
<g id="communication_-_email_envelope_1_">
	<g>
		<path class="st0" d="M23.7999992,9.6000004C23.6999989,9.5,23.5999985,9.5,23.3999996,9.5H8.5
			c-0.1000004,0-0.3000002,0-0.3999996,0.1000004C8.1000004,9.6999998,8,9.8999996,8,10l0,0v12c0,0.2999992,0.1999998,0.5,0.5,0.5
			h15c0.2999992,0,0.5-0.2000008,0.5-0.5V10l0,0C24,9.8999996,23.8999996,9.6999998,23.7999992,9.6000004z M22.1000004,10.5
			L16,15.3999996L9.8999996,10.5H22.1000004z M22.5,21.5h-13C9.1999998,21.5,9,21.2999992,9,21V11l6.6000004,5.2999992l0,0
			C15.7000008,16.3999996,15.8000002,16.3999996,16,16.3999996c0.1000004,0,0.2999992,0,0.3999996-0.1000004l0,0L23,11v10
			C23,21.2999992,22.7999992,21.5,22.5,21.5z"/>
	</g>
</g>
</svg>

