<?xml version="1.0" encoding="utf-8"?>
<!-- Generator: Adobe Illustrator 19.2.1, SVG Export Plug-In . SVG Version: 6.00 Build 0)  -->
<svg version="1.1" id="Layer_1" xmlns="http://www.w3.org/2000/svg" xmlns:xlink="http://www.w3.org/1999/xlink" x="0px" y="0px"
	 viewBox="0 0 32 32" style="enable-background:new 0 0 32 32;" xml:space="preserve">
<style type="text/css">
	.st0{fill:#3FB2BB;}
</style>
<g id="interface_-_circle_right_true">
	<g>
		<path class="st0" d="M16,0C7.1999998,0,0,7.1999998,0,16s7.1999998,16,16,16s16-7.2000008,16-16S24.7999992,0,16,0z M16,31
			C7.6999998,31,1,24.2999992,1,16S7.6999998,1,16,1s15,6.6999998,15,15S24.2999992,31,16,31z"/>
	</g>
</g>
<g id="communication_-_phone_call">
	<g>
		<path class="st0" d="M23.6000004,20c-0.2000008-0.2000008-2.8999996-2-3.2000008-2.2000008
			c-0.1000004-0.1000004-0.2999992-0.1000004-0.5-0.1000004s-0.5,0.1000004-0.7999992,0.2000008s-1,0.6000004-1.3999996,0.7999992
			c-0.2999992-0.2000008-1.1000004-0.7999992-2.3999996-2.1000004c-1.1999998-1.1999998-1.8000002-2-2.1000004-2.3999996
			c0.1999998-0.3999996,0.6999998-1.1999998,0.8000002-1.3999996c0.3000002-0.5,0.3000002-1,0.1000004-1.3000002
			s-2-3-2.0999994-3.1999998C11.8000002,8.1000004,11.5,8,11.1000004,8c-0.3000002,0-0.5,0.1000004-0.8000002,0.3000002
			C10.3000002,8.3000002,7.9000001,10,8,11c0.1000004,2.6999998,2.6999998,5.8999996,4.8999996,8.2000008
			c2.1999998,2.2000008,5.3999996,4.8999996,8.1000004,5l0,0c1,0,2.6000004-2.2999992,2.7000008-2.3999996
			C24.2000008,21,24,20.2999992,23.6000004,20z M22.8999996,21.1000004C22.2999992,22,21.3999996,22.8999996,21,23
			c-1.8999996-0.1000004-4.5-1.7000008-7.3999996-4.7000008C10.7000008,15.3999996,9,12.6999989,9,10.8999996
			C9.1000004,10.5,10,9.5999994,10.8999996,9C11,9,11,9,11.1000004,9l0,0
			c0.3000002,0.3999996,1.8000002,2.6999998,2.1000004,3.1000004c0,0,0,0.1999998-0.1000004,0.3000002
			C13,12.6000004,12.7000008,13.1000004,12.3000002,13.8000002L12,14.3999996l0.3999996,0.5
			c0.3000002,0.3999996,0.8999996,1.2000008,2.1999998,2.5s2.0999994,1.8999996,2.499999,2.2000008l0.5,0.3999996l0.5-0.2999992
			c0.5-0.2999992,1.2000008-0.7000008,1.3999996-0.7999992c0.2000008-0.1000004,0.2999992-0.1000004,0.2999992-0.1000004l0,0
			c0.3999996,0.2000008,2.7000008,1.7999992,3.1000004,2.1000004C23,20.8999996,23,21,22.8999996,21.1000004z"/>
	</g>
</g>
</svg>
