<svg xmlns="http://www.w3.org/2000/svg" width="17" height="17" viewBox="0 0 17 17">
  <g fill="none" fill-rule="evenodd" transform="translate(1 1)">
    <circle cx="7.5" cy="7.5" r="7.5" fill="#FFF" stroke="#E6E7E8" stroke-width=".5"/>
    <path fill="#3FB2BB" d="M0.690634873,2.57013843 C0.569649671,2.69701651 0.569649671,2.90384518 0.691469254,3.02985424 L1.47078084,3.84239541 C1.59260042,3.9692735 1.79118303,3.9692735 1.91216823,3.84239541 L3.17875815,2.52668703 C3.30057773,2.39980894 3.49916034,2.40067797 3.62014554,2.52668703 L7.09116929,6.15053376 C7.21215449,6.27654282 7.4107371,6.27741185 7.53255669,6.15140279 L8.30853075,5.34928995 C8.43035033,5.22328089 8.43035033,5.01645223 8.30936513,4.88957414 L4.10074883,0.495768609 C3.97976363,0.36975955 3.74029636,0.26547619 3.56841394,0.26547619 L3.20462395,0.26547619 C3.0335759,0.26547619 2.79410864,0.36975955 2.67228906,0.495768609 L0.690634873,2.57013843 Z" transform="matrix(1 0 0 -1 3 11)"/>
  </g>
</svg>
