<?xml version="1.0" encoding="utf-8"?>
<!-- Generator: Adobe Illustrator 18.1.0, SVG Export Plug-In . SVG Version: 6.00 Build 0)  -->
<svg version="1.1" id="Layer_1" xmlns="http://www.w3.org/2000/svg" xmlns:xlink="http://www.w3.org/1999/xlink" x="0px" y="0px"
	 viewBox="0 0 54 54" enable-background="new 0 0 54 54" xml:space="preserve">
<path fill="#EF8F1C" d="M27,54C12.1,54,0,41.9,0,27S12.1,0,27,0s27,12.1,27,27S41.9,54,27,54z M27,1.9C13.2,1.9,1.9,13.2,1.9,27
	c0,13.8,11.2,25.1,25.1,25.1c13.8,0,25.1-11.2,25.1-25.1C52.1,13.2,40.8,1.9,27,1.9z"/>
<g>
	<g>
		<path fill-rule="evenodd" clip-rule="evenodd" fill="#EF8F1C" d="M36.1,18.4h-4.6v-2.3c0-0.4-0.3-0.8-0.8-0.8h-7.6
			c-0.4,0-0.8,0.3-0.8,0.8v2.3h-4.6c-1.7,0-3,1.4-3,3.1v14c0,1.7,1.4,3.1,3,3.1h18.2c1.7,0,3-1.4,3-3.1v-14
			C39.2,19.8,37.8,18.4,36.1,18.4z M24,17.6c0-0.4,0.3-0.8,0.8-0.8h4.6c0.4,0,0.8,0.3,0.8,0.8v0.8H24V17.6z M37.6,35.6
			c0,0.9-0.7,1.6-1.5,1.6H17.9c-0.8,0-1.5-0.7-1.5-1.6V27h6.8v4.7h7.6V27h6.8V35.6z M24.7,30.1V27h4.6v3.1H24.7z M37.6,25.4H16.4
			v-3.9c0-0.9,0.7-1.6,1.5-1.6h18.2c0.8,0,1.5,0.7,1.5,1.6V25.4z"/>
	</g>
</g>
</svg>
